# xmcd
#
# Track frame offsets:
#	150
#	15212
#	26552
#	41150
#	56810
#	77797
#	93600
#	106817
#
# Disc length: 1618 seconds
#
# Revision: 0
# Processed by: cddbd v1.5.1PL0 Copyright (c) Steve Scherf et al.
# Submitted via: dBpowerAMP V4.0
#
DISCID=5b065008
DTITLE=Various Artist - Contemporary Country
DYEAR=1900
DGENRE=Country
TTITLE0=Me Niether - Brad Paisley
TTITLE1=Cherokee Boogie - BR5-49
TTITLE2=There You Have It - Blackhawk
TTITLE3=Lucky In Love - Sherrie Austin
TTITLE4=All That Matters Anymore - Lee Roy Parnell
TTITLE5=Imagine That - Diamond Rio
TTITLE6=I Said A Prayer - Pam Tillis
TTITLE7=When I Grow Up - Clint Danials
EXTD=UPDATE
EXTT0=
EXTT1=
EXTT2=
EXTT3=
EXTT4=
EXTT5=
EXTT6=
EXTT7=
PLAYORDER=
